<?xml version="1.0" encoding="UTF-8"?>
<svg width="752pt" height="752pt" version="1.1" viewBox="0 0 752 752" xmlns="http://www.w3.org/2000/svg">
 <path d="m590.45 342.1c-8.6836-54.918-38.109-104.41-82.211-138.27-44.102-33.859-99.516-49.504-154.81-43.707-55.301 5.8008-106.26 32.594-142.38 74.863s-54.645 96.789-51.75 152.32c2.8945 55.523 26.988 107.82 67.309 146.11 40.32 38.281 93.797 59.633 149.39 59.648 37.227-0.046875 73.824-9.6016 106.32-27.762 6.1562-3.4414 10.008-9.9023 10.105-16.953 0.097657-7.0508-3.5742-13.617-9.6328-17.227-6.0547-3.6094-13.578-3.7148-19.73-0.27344-38.109 21.461-82.801 28.102-125.5 18.656-42.703-9.4492-80.418-34.324-105.92-69.855s-36.992-79.227-32.273-122.71 25.316-83.691 57.844-112.93c18.516-16.801 40.395-29.465 64.184-37.156 23.789-7.6875 48.941-10.227 73.785-7.4414 35.164 3.8164 68.387 18.043 95.41 40.859 27.027 22.816 46.621 53.184 56.277 87.211 9.6602 34.023 8.9375 70.156-2.0742 103.77-2.5 6.9922-7.1172 13.031-13.211 17.277-6.0938 4.2422-13.363 6.4805-20.789 6.3984-9.5781-0.007813-18.762-3.8203-25.535-10.594-6.7734-6.7734-10.582-15.957-10.594-25.535v-121.73c0-7.0469-3.7617-13.562-9.8672-17.09-6.1055-3.5234-13.625-3.5234-19.73 0-6.1055 3.5273-9.8672 10.043-9.8672 17.09v0.51563c-16.977-13.062-37.777-20.176-59.199-20.246-32.574-0.20703-63.152 15.684-81.711 42.457-18.555 26.777-22.699 60.984-11.07 91.418 11.625 30.43 37.523 53.16 69.207 60.738 31.684 7.582 65.066-0.96875 89.207-22.844 5.8672 13.449 15.523 24.902 27.785 32.961 12.262 8.0586 26.605 12.375 41.277 12.426 15.762 0.16016 31.164-4.6719 44.012-13.801 12.844-9.1328 22.473-22.094 27.5-37.031 10.762-32.723 13.586-67.535 8.2461-101.56zm-214.45 93.098c-15.699 0-30.758-6.2383-41.859-17.34s-17.336-26.156-17.336-41.859c0-15.699 6.2344-30.758 17.336-41.859s26.16-17.336 41.859-17.336c15.703 0 30.758 6.2344 41.859 17.336s17.34 26.16 17.34 41.859c0 15.703-6.2383 30.758-17.34 41.859s-26.156 17.34-41.859 17.34z"/>
</svg>
