<?xml version="1.0" encoding="UTF-8"?>
<svg width="752pt" height="752pt" version="1.1" viewBox="0 0 752 752" xmlns="http://www.w3.org/2000/svg">
 <path d="m376 168.81c-4.4414 0-8.1406 1.4805-11.098 4.4414l-192.39 207.19c-2.2188 2.9609-3.6992 6.6602-3.6992 10.359 0 8.1406 6.6602 14.801 14.801 14.801h14.801v162.79c0 8.1406 6.6602 14.801 14.801 14.801h325.59c8.1406 0 14.801-6.6602 14.801-14.801v-162.79h14.801c8.1406 0 14.801-6.6602 14.801-14.801 0-3.6992-1.4805-7.3984-3.6992-10.359l-192.39-207.19c-2.9609-2.2188-6.6602-4.4414-11.098-4.4414zm-44.398 251.59h88.797v133.2h-88.797z"/>
</svg>
