<?xml version="1.0" encoding="UTF-8"?>
<svg width="752pt" height="752pt" version="1.1" viewBox="0 0 752 752" xmlns="http://www.w3.org/2000/svg">
 <path d="m218.14 265.78-63.992-63.977 27.922-27.922 63.973 63.996h300.76c6.2383 0 12.109 2.9453 15.832 7.9492 3.7227 5.0039 4.8633 11.473 3.0742 17.445l-47.359 157.86c-1.2188 4.0664-3.7148 7.6328-7.1211 10.168s-7.5391 3.9023-11.781 3.9023h-241.84v39.465h217.06v39.465h-236.79c-5.2344 0-10.254-2.0781-13.953-5.7773-3.7031-3.7031-5.7812-8.7227-5.7812-13.953zm29.598 327.28c-10.574 0-20.344-5.6406-25.633-14.797-5.2852-9.1602-5.2852-20.441 0-29.602 5.2891-9.1562 15.059-14.797 25.633-14.797 10.578 0 20.348 5.6406 25.637 14.797 5.2852 9.1602 5.2852 20.441 0 29.602-5.2891 9.1562-15.059 14.797-25.637 14.797zm236.79 0h0.003906c-10.574 0-20.348-5.6406-25.633-14.797-5.2891-9.1602-5.2891-20.441 0-29.602 5.2852-9.1562 15.059-14.797 25.633-14.797s20.344 5.6406 25.633 14.797c5.2852 9.1602 5.2852 20.441 0 29.602-5.2891 9.1562-15.059 14.797-25.633 14.797z"/>
</svg>
